<svg width="68" height="50" viewBox="0 0 68 50" fill="none" xmlns="http://www.w3.org/2000/svg" xmlns:xlink="http://www.w3.org/1999/xlink">
<path d="M3.998,0.017C2.894,0.194 1.905,0.802 1.249,1.708C0.594,2.614 0.325,3.744 0.501,4.849C0.678,5.953 1.286,6.943 2.191,7.599C3.097,8.255 4.226,8.524 5.33,8.347L17.817,8.347L18.566,10.43L21.979,20.843L25.392,31.256C25.725,32.339 27.14,33.339 28.223,33.339L57.359,33.339C58.525,33.339 59.857,32.339 60.19,31.256L66.933,10.43C67.266,9.347 66.766,8.347 65.601,8.347L28.639,8.347L25.475,2.349C25.138,1.661 24.618,1.079 23.972,0.667C23.326,0.256 22.578,0.031 21.812,0.017L5.163,0.017C4.914,-0.006 4.663,-0.006 4.414,0.017C4.247,0.007 4.081,0.007 3.914,0.017L3.998,0.017ZM30.304,41.669C27.973,41.669 26.141,43.502 26.141,45.835C26.141,48.167 27.973,50 30.304,50C32.635,50 34.466,48.167 34.466,45.835C34.466,43.502 32.635,41.669 30.304,41.669ZM55.278,41.669C52.947,41.669 51.116,43.502 51.116,45.835C51.116,48.167 52.947,50 55.278,50C57.609,50 59.44,48.167 59.44,45.835C59.44,43.502 57.609,41.669 55.278,41.669Z" fill="#FFFFFF"/>
</svg>
