<svg width="68" height="50" viewBox="0 0 68 50" fill="none" xmlns="http://www.w3.org/2000/svg" xmlns:xlink="http://www.w3.org/1999/xlink">
<path d="M3.552,0.017C2.447,0.194 1.458,0.802 0.802,1.708C0.146,2.614 -0.124,3.744 0.053,4.849C0.23,5.953 0.838,6.943 1.744,7.599C2.65,8.255 3.78,8.524 4.885,8.347L17.38,8.347L18.13,10.43L21.546,20.843L24.961,31.256C25.294,32.339 26.711,33.339 27.794,33.339L56.95,33.339C58.117,33.339 59.45,32.339 59.783,31.256L66.531,10.43C66.864,9.347 66.364,8.347 65.198,8.347L28.21,8.347L25.045,2.349C24.707,1.661 24.187,1.079 23.54,0.667C22.893,0.256 22.146,0.031 21.379,0.017L4.718,0.017C4.469,-0.006 4.218,-0.006 3.968,0.017C3.802,0.007 3.635,0.007 3.469,0.017L3.552,0.017ZM29.876,41.669C27.544,41.669 25.711,43.502 25.711,45.835C25.711,48.167 27.544,50 29.876,50C32.209,50 34.042,48.167 34.042,45.835C34.042,43.502 32.209,41.669 29.876,41.669ZM54.868,41.669C52.535,41.669 50.703,43.502 50.703,45.835C50.703,48.167 52.535,50 54.868,50C57.2,50 59.033,48.167 59.033,45.835C59.033,43.502 57.2,41.669 54.868,41.669Z" fill="#FFFFFF"/>
</svg>
