<svg width="52" height="50" viewBox="0 0 52 50" fill="none" xmlns="http://www.w3.org/2000/svg" xmlns:xlink="http://www.w3.org/1999/xlink">
<path d="M25.238,0C18.368,0 12.747,7 12.747,15.625C12.747,24.25 18.368,31.25 25.238,31.25C32.109,31.25 37.73,24.25 37.73,15.625C37.73,7 32.109,0 25.238,0ZM12.185,31.25C5.565,31.562 0.256,37 0.256,43.75L0.256,50L50.221,50L50.221,43.75C50.221,37 44.975,31.562 38.292,31.25C34.919,35.062 30.297,37.5 25.238,37.5C20.18,37.5 15.558,35.062 12.185,31.25Z" fill="#FFFFFF"/>
</svg>
